<mxfile host="app.diagrams.net" modified="2024-03-05T14:25:33.165Z" agent="Mozilla/5.0 (Windows NT 10.0; Win64; x64) AppleWebKit/537.36 (KHTML, like Gecko) Chrome/122.0.0.0 Safari/537.36 Edg/122.0.0.0" version="23.1.7" etag="4_aUraznw24sTPsMf9m0" type="github">
  <diagram name="Page-1" id="msvfN9fErsn8beNRXXR8">
    <mxGraphModel>
      <root>
        <mxCell id="0" />
        <mxCell id="1" parent="0" />
      </root>
    </mxGraphModel>
  </diagram>
</mxfile>
